/* XPM */
static char *_3945efdbd694d75a568c77387eecbc8rIzndn0jVmI2j1dt[] = {
/* columns rows colors chars-per-pixel */
"64 64 204 2 ",
"   c #00BF63",
".  c #00BF62",
"X  c #16C571",
"o  c #9DE6C3",
"O  c #F3FCF8",
"+  c white",
"@  c #02BF64",
"#  c #8AE2B7",
"$  c #89E1B7",
"%  c #01BF64",
"&  c #17C571",
"*  c #D7F5E6",
"=  c #D6F5E6",
"-  c #1EC775",
";  c #DFF7EC",
":  c #1EC675",
">  c #DFF7EB",
",  c #FEFEFE",
"<  c #F4F4F4",
"1  c #FDFDFD",
"2  c gray99",
"3  c #DADADA",
"4  c #A2A2A2",
"5  c gray38",
"6  c #3A3A3A",
"7  c gray44",
"8  c #EEEEEE",
"9  c #FBFBFB",
"0  c #DDDDDD",
"q  c #A5A5A5",
"w  c #5B5B5B",
"e  c #1D1D1D",
"r  c black",
"t  c #0C0C0C",
"y  c gray80",
"u  c #F3F3F3",
"i  c #CDCDCD",
"p  c gray59",
"a  c #555555",
"s  c gray12",
"d  c gray10",
"f  c gray24",
"g  c #585858",
"h  c #909090",
"j  c gray98",
"k  c gray55",
"l  c #727272",
"z  c #979797",
"x  c gray45",
"c  c #3E3E3E",
"v  c gray7",
"b  c #020202",
"n  c #252525",
"m  c #A7A7A7",
"M  c gray85",
"N  c #8D8D8D",
"B  c #040404",
"V  c #111111",
"C  c gray66",
"Z  c gray89",
"A  c gray93",
"S  c gray82",
"D  c #F8F8F8",
"F  c #9D9D9D",
"G  c gray29",
"H  c gray9",
"J  c #7E7E7E",
"K  c #989898",
"L  c gray6",
"P  c #A0A0A0",
"I  c #F9F9F9",
"U  c #606060",
"Y  c gray47",
"T  c DimGray",
"R  c gray39",
"E  c gray50",
"W  c gray52",
"Q  c #CECECE",
"!  c gray90",
"~  c #808080",
"^  c #767676",
"/  c #F6F6F6",
"(  c #414141",
")  c gray30",
"_  c #C3C3C3",
"`  c gray37",
"'  c #313131",
"]  c #181818",
"[  c #0E0E0E",
"{  c gray15",
"}  c #7C7C7C",
"|  c #777777",
" . c gray43",
".. c gray81",
"X. c gray3",
"o. c gray4",
"O. c #060606",
"+. c #151515",
"@. c #686868",
"#. c gray40",
"$. c #5D5D5D",
"%. c #EAEAEA",
"&. c gray68",
"*. c gray14",
"=. c #626262",
"-. c gray",
";. c gray84",
":. c gray88",
">. c gray78",
",. c gray28",
"<. c #101010",
"1. c #CBCBCB",
"2. c #484848",
"3. c gray17",
"4. c gray1",
"5. c #DFDFDF",
"6. c #B7B7B7",
"7. c #6D6D6D",
"8. c #C1C1C1",
"9. c #2A2A2A",
"0. c #838383",
"q. c gray5",
"w. c gray61",
"e. c gray73",
"r. c gray60",
"t. c #A9A9A9",
"y. c #222222",
"u. c #434343",
"i. c #C8C8C8",
"p. c #090909",
"a. c gray75",
"s. c gray74",
"d. c gray91",
"f. c #191919",
"g. c gray19",
"h. c #818181",
"j. c gray67",
"k. c #010101",
"l. c #5F5F5F",
"z. c #C6C6C6",
"x. c #323232",
"c. c #EFEFEF",
"v. c LightGray",
"b. c #4E4E4E",
"n. c #B9B9B9",
"m. c #D2D2D2",
"M. c gray11",
"N. c #8B8B8B",
"B. c gray18",
"V. c gray96",
"C. c #131313",
"Z. c gray8",
"A. c #9B9B9B",
"S. c #AFAFAF",
"D. c gray49",
"F. c gray71",
"G. c #3F3F3F",
"H. c #4B4B4B",
"J. c gray94",
"K. c #E4E4E4",
"L. c #070707",
"P. c #BCBCBC",
"I. c #343434",
"U. c #959595",
"Y. c gray70",
"T. c #494949",
"R. c #161616",
"E. c #D5D5D5",
"W. c #E2E2E2",
"Q. c gray86",
"!. c #8E8E8E",
"~. c #AEAEAE",
"^. c #646464",
"/. c #444444",
"(. c #272727",
"). c #E7E7E7",
"_. c gray95",
"`. c gray54",
"'. c #848484",
"]. c gray62",
"[. c gray32",
"{. c gray77",
"}. c #D7D7D7",
"|. c #D8D8D8",
" X c gray58",
".X c #6F6F6F",
"XX c #5A5A5A",
"oX c #A4A4A4",
"OX c gray87",
"+X c #515151",
"@X c #1E1E1E",
"#X c gray2",
"$X c gray83",
"%X c #B2B2B2",
"&X c gray51",
"*X c #717171",
"=X c #2D2D2D",
"-X c #353535",
";X c #E6E6E6",
":X c #E9E9E9",
">X c #ECECEC",
",X c #797979",
"<X c #9CE6C3",
"1X c #16C570",
/* pixels */
"                    . X o O + + + + + + + + + + + + + + + + + + + + + + + + + + + + + + + + + + + + O o X .                     ",
"                    @ # + + + + + + + + + + + + + + + + + + + + + + + + + + + + + + + + + + + + + + + + $ %                     ",
"                  . & * + + + + + + + + + + + + + + + + + + + + + + + + + + + + + + + + + + + + + + + + = X .                   ",
"                  . - ; + + + + + + + + + + + + + + + + + + + + + + + + + + + + + + + + + + + + + + + + ; : .                   ",
"                  . : > + + + + + + + + + + + + + + + + + + + + + + + + + + + + + + + + + + + + + + + + > : .                   ",
"                  . : > + + + + + + + + + + + + + + + + + + + + + + + + + + + + + + + + + + + + + + + + > : .                   ",
"                  . : > + + + + + + + + + + + + + + + + + + + + + + + + + + + + + + + + + + + + + + + + > : .                   ",
"                  . : > + + + + + + + + + + + + + + + + + + + + + + + + + + + + + + + + + + + + + + + + > : .                   ",
"                  . : > + + + + + + + + + + + + + + + + + + + + + + + + + + + + + + + + + + + + + + + + > : .                   ",
"                  . : > + + + + + + + + + + + + + + + + + + + + + + + + + + + + + + + + + + + + + + + + > : .                   ",
"                  . : > + + + + + + + + + + + + + + + + + + + + + + + + + + + + + + + + + + + + + + + + > : .                   ",
"                  . : > + + + + + + + + + + + + + + + + + + + + + + + + + + + + + + + + + + + + + + + + > : .                   ",
"                  . : > + + + + + + + + + + + + + + + + + + + + + + + + + + + + + + + + + + + + + + + + > : .                   ",
"                  . : > + + + + + + + + + + + + + + + + + + + + + + + + + + + + + + + + + + + + + + + + > : .                   ",
"                  . : > + + + + + + + + + + + + + + + + + + + + + + + + , < 1 + + + + + + + + + + + + + > : .                   ",
"                  . : > + + + + + + + + + + + + + + + + + + + + + 2 3 4 5 6 7 8 + + + + + + + + + + + + > : .                   ",
"                  . : > + + + + + + + + + + + + + + + + + + 9 0 q w e r r r t y + + + + + + + + + + + + > : .                   ",
"                  . : > + + + + + + + + + + + + + + + u i p a s r r r d f g h < + + + + + + + + + + + + > : .                   ",
"                  . : > + + + + + + + + + j k l z z x c v r r b n 5 m M < , + + + + + + + + + + + + + + > : .                   ",
"                  . : > + + + + + + + + + , N B r r r r r V g C Z A S D + + + + + + + + + + + + + + + + > : .                   ",
"                  . : > + + + + + + + + + + j F G G a H r J , + + K L P + + + + + + + + + + + + + + + + > : .                   ",
"                  . : > + + + + + + + + + + + + j I 1 U r z + + + Y r T + + + + + + + + + + + + + + + + > : .                   ",
"                  . : > + + + + + + + + + + + + + + + Y r h + + + 7 r R + + + + + + + + + + + + + + + + > : .                   ",
"                  . : > + + + + + + + + + + + + + + + E r W + + + U r 5 + + , 8 3 y Q ! + + + + + + + + > : .                   ",
"                  . : > + + + + + + + + + + + + + + + ~ r ^ + + / ( r ) _ K ` ' ] [ L { } 8 + + + + + + > : .                   ",
"                  . : > + + + + + + + + + + + + + + + | r  .+ + ..] r X.o.r r O.+.e [ r r @.D + + + + + > : .                   ",
"                  . : > + + + + + + + + + + + + + + + #.r $.%.&.6 r r r *.=.z -.;.:.>.,.r <.1.+ + + + + > : .                   ",
"                  . : > + + + + + , 1 + + + + + + + I 2.r H 3.4.r r r G 5.+ + + + + + z r O.6.+ + + + + > : .                   ",
"                  . : > + + + + + M 7.! + + + + + + 8.H r r 9.x 0.q.r w.+ + + + + + + k r O.6.+ + + + + > : .                   ",
"                  . : > + + + + + e.O.r.+ + + + 2 t.y.r r u.Z + i.t p.a.+ + + + + + + ^ r X.s.+ + + + + > : .                   ",
"                  . : > + + + + + s.B w 1 + + d. .f.g.p.r h.+ + j.k.f.M + + + + + + + l.r t z.+ + + + + > : .                   ",
"                  . : > + + + + + i.o.x.c.+ v.b.) n.m.M.r w.+ + N.r B.c.+ + V.%.< + D ,.r C.S + + + + + > : .                   ",
"                  . : > + + + + + ;.Z.f.3 1 A.j.V.+ S v 4.S.+ + D.r n F.m 7 G.9.H.5.J.' r M.0 + + + + + > : .                   ",
"                  . : > + + + + + K.y.L.P.+ 1 + + + e.L.p.a.+ + J r r p.b r r r v Q :.e r 3.%.+ + + + + > : .                   ",
"                  . : > + + + + + J.I.r U.+ + + + + P r L y + + s.{ H Z.k.r p.H.Y.+ z.t r ( / + + + + + > : .                   ",
"                  . : > + + + + + I T.r 7.+ + + + + W r R.E.+ + 1 W.Q.!.L u.~./ + + q b r 5 + + + + + + > : .                   ",
"                  . : > + + + + + + ^.r /./ + + + + ^ r (.).+ + + + + S e._.+ + + + D.r r `.+ + + + + + > : .                   ",
"                  . : > + + + + + + '.r y.W.+ + + + ].L.$.9 + + + + + + + + + + + 9 [.r O.F.+ + + + + + > : .                   ",
"                  . : > + + + + + + m k.t {.+ + + + V.s.:.+ + + + + 2 A }.-.j.j.W.%.3.r ] |.+ + + + + + > : .                   ",
"                  . : > + + + + + + i.[ r  X+ + + + + + + + < |.S.0.a g.H X.k.r .X{.q.r 6 _.+ + + + + + > : .                   ",
"                  . : > + + + + + + ! { r XX, + + + _.m.oX.XG.f.4.r r r O.V s H.>.h r r x + + + + + + + > : .                   ",
"                  . : > + + + + + + I ) r e i.OXj..X6 +.r r r b R.I.` .X7.n.K.D 2 +Xr L.F.+ + + + + + + > : .                   ",
"                  . : > + + + + + + + `.r r @X@Xk.r r #Xs T.Y &.$Xc.+ %Xv f 6.+ Q.M.r 3.d.+ + + + + + + > : .                   ",
"                  . : > + + + + + + + |.y.r r 4.(.+X&XF.5.D + + + + + V..Xr L | *Xk.r 7 + + + + + + + + > : .                   ",
"                  . : > + + + + + + + + &.=X-X].;X9 + + + + + + + + + + u 7.k.r b r H y + + + + + + + + > : .                   ",
"                  . : > + + + + + + + + + :X>X+ + + + + + + + + + + + + + < ,Xo.r X.k , + + + + + + + + > : .                   ",
"                  . : > + + + + + + + + + + + + + + + + + + + + + + + + + + j %X~ &.I + + + + + + + + + > : .                   ",
"                  . : > + + + + + + + + + + + + + + + + + + + + + + + + + + + + + + + + + + + + + + + + > : .                   ",
"                  . : > + + + + + + + + + + + + + + + + + + + + + + + + + + + + + + + + + + + + + + + + > : .                   ",
"                  . : > + + + + + + + + + + + + + + + + + + + + + + + + + + + + + + + + + + + + + + + + > : .                   ",
"                  . : > + + + + + + + + + + + + + + + + + + + + + + + + + + + + + + + + + + + + + + + + > : .                   ",
"                  . : > + + + + + + + + + + + + + + + + + + + + + + + + + + + + + + + + + + + + + + + + > : .                   ",
"                  . : > + + + + + + + + + + + + + + + + + + + + + + + + + + + + + + + + + + + + + + + + > : .                   ",
"                  . : > + + + + + + + + + + + + + + + + + + + + + + + + + + + + + + + + + + + + + + + + > : .                   ",
"                  . : > + + + + + + + + + + + + + + + + + + + + + + + + + + + + + + + + + + + + + + + + > : .                   ",
"                  . : > + + + + + + + + + + + + + + + + + + + + + + + + + + + + + + + + + + + + + + + + > : .                   ",
"                  . : > + + + + + + + + + + + + + + + + + + + + + + + + + + + + + + + + + + + + + + + + > : .                   ",
"                  . : > + + + + + + + + + + + + + + + + + + + + + + + + + + + + + + + + + + + + + + + + > : .                   ",
"                  . : > + + + + + + + + + + + + + + + + + + + + + + + + + + + + + + + + + + + + + + + + > : .                   ",
"                  . : > + + + + + + + + + + + + + + + + + + + + + + + + + + + + + + + + + + + + + + + + > : .                   ",
"                  . - ; + + + + + + + + + + + + + + + + + + + + + + + + + + + + + + + + + + + + + + + + ; : .                   ",
"                  . & = + + + + + + + + + + + + + + + + + + + + + + + + + + + + + + + + + + + + + + + + = X .                   ",
"                    @ # + + + + + + + + + + + + + + + + + + + + + + + + + + + + + + + + + + + + + + + + $ %                     ",
"                    . X o O + + + + + + + + + + + + + + + + + + + + + + + + + + + + + + + + + + + + O <X1X.                     "
};
