/* XPM */
static char *_2c12cbc28574dd1a59e83192d2e982b0mLZCPXb0Kmt38hr[] = {
/* columns rows colors chars-per-pixel */
"64 64 137 2 ",
"   c None",
".  c #4C6F5E",
"X  c #4E705B",
"o  c #4D5E6B",
"O  c #505E6C",
"+  c #4D477D",
"@  c #4D487C",
"#  c #514C7C",
"$  c #4E5A70",
"%  c #45567E",
"&  c #4E527F",
"*  c #43597B",
"=  c #53557E",
"-  c #57587D",
";  c #4C6F60",
":  c #4E616B",
">  c #51606D",
",  c #52696B",
"<  c #44617D",
"1  c #49647C",
"2  c #57607C",
"3  c #58607E",
"4  c #67C23F",
"5  c #69C23F",
"6  c #6ECE3F",
"7  c #6ED03F",
"8  c #3BB37F",
"9  c #5FBF4F",
"0  c #5FBF50",
"q  c #64B642",
"w  c #64BC43",
"e  c #6DBD4F",
"r  c #69AE55",
"t  c #6DB655",
"y  c #60BF51",
"u  c #6EBA53",
"i  c #65B85D",
"p  c #44A377",
"a  c #42A27B",
"s  c #40B473",
"d  c #6DA764",
"f  c #6FA863",
"g  c #65B461",
"h  c #5FC353",
"j  c #66C043",
"k  c #69C141",
"l  c #6ECD41",
"z  c #66CA4F",
"x  c #70CE41",
"c  c #6ED040",
"v  c #61C554",
"b  c #65C952",
"n  c #5EC261",
"m  c #4D4781",
"M  c #4C4781",
"N  c #4E4782",
"B  c #4D4581",
"V  c #4D4781",
"C  c #4C4980",
"Z  c #4D4980",
"A  c #4E4880",
"S  c #4E4F81",
"D  c #4E4981",
"F  c #504784",
"G  c #504B81",
"H  c #514A82",
"J  c #4D5080",
"K  c #4D5180",
"L  c #4D5081",
"P  c #4D5181",
"I  c #4D5182",
"U  c #4D5183",
"Y  c #4E5082",
"T  c #4E5182",
"R  c #4D5283",
"E  c #4D5181",
"W  c #4E5A83",
"Q  c #4D5A85",
"!  c #4E5A84",
"~  c #4E5A83",
"^  c #535380",
"/  c #505480",
"(  c #535480",
")  c #555681",
"_  c #3B9687",
"`  c #3B9686",
"'  c #3B9488",
"]  c #3A9689",
"[  c #3C9B89",
"{  c #3C9B8A",
"}  c #3D9B8A",
"|  c #3C9B8B",
" . c #3B9D89",
".. c #3A9E89",
"X. c #3C9C89",
"o. c #3D9C89",
"O. c #3C9C8A",
"+. c #3D9C8A",
"@. c #3C9D8A",
"#. c #3C9E8A",
"$. c #3C9B8A",
"%. c #31A485",
"&. c #31A585",
"*. c #32A484",
"=. c #32A485",
"-. c #30A684",
";. c #3FA187",
":. c #37A981",
">. c #32AB86",
",. c #36A881",
"<. c #35A988",
"1. c #37B083",
"2. c #37B183",
"3. c #37B283",
"4. c #31B086",
"5. c #36B084",
"6. c #37B184",
"7. c #36B085",
"8. c #36B284",
"9. c #37B183",
"0. c #38B183",
"q. c #38B283",
"w. c #3CB480",
"e. c #3CB580",
"r. c #3CB481",
"t. c #38B184",
"y. c #39B283",
"u. c #448F8A",
"i. c #438C8C",
"p. c #448D8B",
"a. c #43908C",
"s. c #409F88",
"d. c #409F89",
"f. c #40A087",
"g. c #40A187",
"h. c #40A187",
"j. c #40A088",
/* pixels */
"                                                        B B B B B B B +                                                         ",
"                                                        o o o o o o o o                                                         ",
"                                                B B B o q k k k k k k t = B B +                                                 ",
"                                                o o o X k x l l l l x u , o o o                                                 ",
"                                            B : q k k k l l l l l l l l k k k t = +                                             ",
"                                            B o k x l l l l u t t u l l l l x u = @                                             ",
"                                            B o k l l l 7 u 2 = = , k l l l l t = +                                             ",
"                                            o X k l l x u d - # # > r u l l l u 1 *                                             ",
"                                        B : q k l l 7 u 2 -         - , k l 6 b :.` K @                                         ",
"                                        B o k x l l u d - #         # O r u l b w.O.K @                                         ",
"                                        B o k l l u 2 -                 - , k b w.{ K @                                         ",
"                                        B o k l l t = @                 B o k b w.{ K @                                         ",
"                                        B o k l l t = @                 B o k b w.{ K @                                         ",
"                                        B o k l l u , O                 o X k b t.{ K @                                         ",
"                                        B o k x l l k r = +         + o q k 6 b 3.O.K @                                         ",
"                                        + o r u l l c u , o         o X k l z n g.u.E @                                         ",
"                                            = , k l l l k r = B B o q k 6 b r.s.Q &                                             ",
"                                            B o k l l l l u , o o X k l b n 8.{ K +                                             ",
"                                            B o k x l l l l k j k k 6 b r.8.4.O.K @                                             ",
"                                            + o r u t u l l l l l l b n g.{ O.p.= @                                             ",
"                                                = = ^ , k l l l 6 b r.g.Q K K &                                                 ",
"                                                + @ B $ r u l l b n ;.i.S + @ @                                                 ",
"                                                    @ @ = , k b r.g.W K @ @                                                     ",
"                                                    @ @ B o k b 8.{ K + @ @                                                     ",
"                                                        B o k b t.{ K @                                                         ",
"                                                        B o k b t.{ K @                                                         ",
"                                                        B o k b t.{ K @                                                         ",
"                                                        B o k b t.{ K @                                                         ",
"                                    @ @ B B B B B B B B B o k b 8.{ K + @ + + + + + @ @                                         ",
"                                    @ @ o o o o o o o o o X k b 8. .< * * * * * * % Z @                                         ",
"                                    B o q k k k k k k k k k l b 3.>.-.-.-.-.-.-.-.] K @                                         ",
"                                    B $ r u u u u u u u u e l b 3.<.O.O.O.O.O.O. .p.K @                                         ",
"                                    @ @ = = = = = = = = ( , k b 3.O.Q K K K K K K K Z @                                         ",
"                                    @ @ @ + + + @ + + @ B o k b t.{ K + @ @ @ @ @ @ @ @                                         ",
"                                                        B o k b t.{ K @                                                         ",
"                                                        B o k b t.{ K @                                                         ",
"                                                        B o k b t.{ K @                                                         ",
"                                                        B o k b t.{ K @                                                         ",
"                                                        B o k b t.{ K @                                                         ",
"                                                        B o k b t.{ K @                                                         ",
"                                                        B o k b t.{ K @                                                         ",
"                                                        B o k b t.{ K @                                                         ",
"@ @ B B B B B B B + @ @                                 B o k b t.{ K @                                 H @ Z Z Z Z Z Z Z Z @ @ ",
"@ @ o o o o o o o $ @ @                                 B o k b t.{ K @                                 Z @ o o o o o o o $ @ @ ",
"B o q k k k k k 5 r = @                                 B o k b t.{ K @                                 Z o q k k k k k 5 r = @ ",
"B o k x l l l x u f - +                                 B o k b t.{ K @                                 H o r e l l l l 7 u = @ ",
"B o k x x x l u 3 =                                     B o k b t.{ K @                                     ) , k l x x 6 t = @ ",
"B o k l b z l t = +                                     B o k b t.{ K @                                     H o k l b z l t = + ",
"B o 5 b r.s l u = B Z @                                 B o k b t.{ K @                                 G Z B o 5 b w.s l u = + ",
"B o 0 n s.a h i , o @ @                                 B o k b t.{ K @                                 Z @ o . 9 n O.a h g = + ",
"+ * :.g.W < :.s j r = B @ @                             B o k b t.{ K @                             H Z B o q h w.g.W < :.g.K + ",
"+ % ` a.K * ] a v i , o o O                             B o k b t.{ K @                             > o o . h n j.a.& * ` p.K @ ",
"@ @ K &     K < :.s w k 4 r - B Z +                     B o k b t.{ K @                     H Z Z : q k 5 9 w.j.W K     K K Z @ ",
"@ @ + @     + * ] a v b b i , o o o                     B o k b t.{ K @                     : o o ; 0 b b n g.a.& +     @ @ @ @ ",
"                K < :.3.8.s w k 5 r ) B B B B @         B o k b 8.{ U +         H Z H H F > q k 5 0 w.3.3.g.W &                 ",
"                + * ] O.$.a h b b i , o o o o o         o X 5 z s p : o         : o o o o ; h b b n g.$. .a.& +                 ",
"                    & K K < :.8.8.s w k k k 5 r ) B B o q k l l l l k r ) Z N > q k k k 5 0 w.8.3.g.Q K K K                     ",
"                    @ @ + * ` { { a v b b b b i , o o X k x l l l l x u , o o . y b b b b n g.{  .a.K + @ @                     ",
"                            K K K < :.8.3.3.8.s w k k 5 l x x x x x x l k k 5 0 8 3.3.3.3.g.W K K K                             ",
"                            @ @ + * ] O.O.O.$.a v b b b b b b b b b b b b b b n g.$.O. . .a.& + @ @                             ",
"                                    & K K K K < :.t.t.t.t.t.t.t.t.t.t.t.t.t.8.j.Q K K K K &                                     ",
"                                    @ + + + + * ] { { { { { { { { { { { { { { a.& + + + @ @                                     ",
"                                                K K K K K K K K K K K K K K K &                                                 ",
"                                                @ @ @ @ Z @ @ @ @ @ @ @ Z @ @ @                                                 "
};
