/* XPM */
static char *fe1a77557aa24bb9ef29617f076cac16GCcJ7lvSXXNtz6U4[] = {
/* columns rows colors chars-per-pixel */
"64 64 42 1 ",
"  c #517A99",
". c #52819E",
"X c #59ADBD",
"o c #5AB4C2",
"O c #5AB3C1",
"+ c #5AB5C2",
"@ c #59A7BA",
"# c #4F5588",
"$ c #4D477F",
"% c #5387A2",
"& c #58A7B9",
"* c #59AEBD",
"= c #5AB2C0",
"- c #59A9BB",
"; c #579BB3",
": c #4E5387",
"> c #5386A2",
", c #50608F",
"< c #4E5286",
"1 c #4D4981",
"2 c #4D4880",
"3 c #579BB2",
"4 c #59A8BB",
"5 c #50608E",
"6 c #59ACBC",
"7 c #58A0B5",
"8 c #4D467F",
"9 c #52829F",
"0 c #517B9B",
"q c #4E4F84",
"w c #517B9A",
"e c #507597",
"r c #4D4E83",
"t c #517597",
"y c #517C9A",
"u c #4D4780",
"i c #507095",
"p c #4E5385",
"a c #4D4D83",
"s c #4D4980",
"d c #507195",
"f c white",
/* pixels */
" .XoOOOOOOOOOOOOOOOOOOOOOOOOOOOOOOOOOOOOOOOOOOOOOOOOOOOOOOOO+@#$",
".%&*=OOOOOOOOOOOOOOOOOOOOOOOOOOOOOOOOOOOOOOOOOOOOOOOOOOOOOO=-;:$",
"X&>%*oOOOOOOOOOOOOOOOOOOOOOOOOOOOOOOOOOOOOOOOOOOOOOOOOOOOOo-,<12",
"o*%>&*=OOOOOOOOOOOOOOOOOOOOOOOOOOOOOOOOOOOOOOOOOOOOOOOOOO=-3<$22",
"O=*&>%*oOOOOOOOOOOOOOOOOOOOOOOOOOOOOOOOOOOOOOOOOOOOOOOOOo-,<1222",
"OOo*%>&*=OOOOOOOOOOOOOOOOOOOOOOOOOOOOOOOOOOOOOOOOOOOOOO=-3<$2222",
"OOO=*&>%*oOOOOOOOOOOOOOOOOOOOOOOOOOOOOOOOOOOOOOOOOOOOOo-,<122222",
"OOOOo*%>&*=OOOOOOOOOOOOOOOOOOOOOOOOOOOOOOOOOOOOOOOOOO=-3<$222222",
"OOOOO=*&>%*oOOOOOOOOOOOOOOOOOOOOOOOOOOOOOOOOOOOOOOOOo-,<12222222",
"OOOOOOo*%>&*=OOOOOOOOOOOOOOOOOOOOOOOOOOOOOOOOOOOOOO=-3<$22222222",
"OOOOOOO=*&>%*oOOOOOOOOOOOOOOOOOOOOOOOOOOOOOOOOOOOOo-,<1222222222",
"OOOOOOOOo*%>&*=OOOOOOOOOOOOOOOOOOOOOOOOOOOOOOOOOO=-3<$2222222222",
"OOOOOOOOO=*&>%*oOOOOOOOOOOOOOOOOOOOOOOOOOOOOOOOOo-,<122222222222",
"OOOOOOOOOOo*%>&*=OOOOOOOOOOOOOOOOOOOOOOOOOOOOOO=-3<$222222222222",
"OOOOOOOOOOO=*&>%*oOOOOOOOOOOOOOOOOOOOOOOOOOOOOo45<12222222222222",
"OOOOOOOOOOOOo*%>&X6666666666666666666666666666X7:822222222222222",
"OOOOOOOOOOOOO=*&%.999999999999999999999999999990q222222222222222",
"OOOOOOOOOOOOOOoX. wwwwwwwwwwwwwwwwwwwwwwwwwwwwwer222222222222222",
"OOOOOOOOOOOOOOO69wwwwwwwwwwwwwwwwwwwwwwwwwwwwwwtr222222222222222",
"OOOOOOOOOOOOOOO69wwwwwwwwwwwwwwwwwwwwwwwwwwwwwwtr222222222222222",
"OOOOOOOOOOOOOOO69wwwwwwwwwwwwwwwwwwwwwwwwwwwwwwtr222222222222222",
"OOOOOOOOOOOOOOO69wwwwwwwwwwwwwwwwwwwwwwwwwwwwwwtr222222222222222",
"OOOOOOOOOOOOOOO69wwwwwwwwwwwwwwwwwwwwwwwwwwwwwwtr222222222222222",
"OOOOOOOOOOOOOOO69wwwwwwwwwwwwwwwwwwwwwwwwwwwwwwtr222222222222222",
"OOOOOOOOOOOOOOO69wwwwwwwwwwwwwwwwwwwwwwwwwwwwwwtr222222222222222",
"OOOOOOOOOOOOOOO69wwwwwwwwwwwwwwwwwwwwwwwwwwwwwwtr222222222222222",
"OOOOOOOOOOOOOOO69wwwwwwwwwwwwwwwwwwwwwwwwwwwwwwtr222222222222222",
"OOOOOOOOOOOOOOO69wwwwwwwwwwwwwwwwwwwwwwwwwwwwwwtr222222222222222",
"OOOOOOOOOOOOOOO69wwwwwwwwwwwwwwwwwwwwwwwwwwwwwwtr222222222222222",
"OOOOOOOOOOOOOOO69wwwwwwwwwwwwwwwwwwwwwwwwwwwwwwtr222222222222222",
"OOOOOOOOOOOOOOO69wwwwwwwwwwwwwwwwwwwwwwwwwwwwwwtr222222222222222",
"OOOOOOOOOOOOOOO69wwwwwwwwwwwwwwwwwwwwwwwwwwwwwwtr222222222222222",
"OOOOOOOOOOOOOOO69wwwwwwwwwwwwwwwwwwwwwwwwwwwwwwtr222222222222222",
"OOOOOOOOOOOOOOO69wwwwwwwwwwwwwwwwwwwwwwwwwwwwwwtr222222222222222",
"OOOOOOOOOOOOOOO69wwwwwwwwwwwwwwwwwwwwwwwwwwwwwwtr222222222222222",
"OOOOOOOOOOOOOOO69wwwwwwwwwwwwwwwwwwwwwwwwwwwwwwtr222222222222222",
"OOOOOOOOOOOOOOO69wwwwwwwwwwwwwwwwwwwwwwwwwwwwwwtr222222222222222",
"OOOOOOOOOOOOOOO69wwwwwwwwwwwwwwwwwwwwwwwwwwwwwwtr222222222222222",
"OOOOOOOOOOOOOOO69wwwwwwwwwwwwwwwwwwwwwwwwwwwwwwtr222222222222222",
"OOOOOOOOOOOOOOO69wwwwwwwwwwwwwwwwwwwwwwwwwwwwwwtr222222222222222",
"OOOOOOOOOOOOOOO69wwwwwwwwwwwwwwwwwwwwwwwwwwwwwwtr222222222222222",
"OOOOOOOOOOOOOOO69wwwwwwwwwwwwwwwwwwwwwwwwwwwwwwtr222222222222222",
"OOOOOOOOOOOOOOO69wwwwwwwwwwwwwwwwwwwwwwwwwwwwwwtr222222222222222",
"OOOOOOOOOOOOOOO69wwwwwwwwwwwwwwwwwwwwwwwwwwwwwwtr222222222222222",
"OOOOOOOOOOOOOOO69wwwwwwwwwwwwwwwwwwwwwwwwwwwwwwtr222222222222222",
"OOOOOOOOOOOOOOO69wwwwwwwwwwwwwwwwwwwwwwwwwwwwwwtr222222222222222",
"OOOOOOOOOOOOOOoX9wwwwwwwwwwwwwwwwwwwwwwwwwwwwwytru22222222222222",
"OOOOOOOOOOOOO=470etttttttttttttttttttttttttttttipas2222222222222",
"OOOOOOOOOOOOo-5:qrrrrrrrrrrrrrrrrrrrrrrrrrrrrrrpdiau222222222222",
"OOOOOOOOOOO=-3<8222222222222222222222222222222uaidpas22222222222",
"OOOOOOOOOOo-,<122222222222222222222222222222222sapdiau2222222222",
"OOOOOOOOO=-3<$2222222222222222222222222222222222uaidpas222222222",
"OOOOOOOOo-,<1222222222222222222222222222222222222sapdiau22222222",
"OOOOOOO=-3<$22222222222222222222222222222222222222uaidpas2222222",
"OOOOOOo-,<12222222222222222222222222222222222222222sapdiau222222",
"OOOOO=-3<$222222222222222222222222222222222222222222uaidpas22222",
"OOOOo-,<122222222222222222222222222222222222222222222sapdiau2222",
"OOO=-3<$2222222222222222222222222222222222222222222222uaidpas222",
"OOo-,<1222222222222222222222222222222222222222222222222sapdiau22",
"O=-3<$22222222222222222222222222222222222222222222222222uaidpas2",
"+-,<12222222222222222222222222222222222222222222222222222sapdiau",
"@;<$222222222222222222222222222222222222222222222222222222uaidpr",
"#:122222222222222222222222222222222222222222222222222222222sapit",
"$$2222222222222222222222222222222222222222222222222222222222urty"
};
