/* XPM */
static char *_6e2867a97ca4460acb065c8bb8570aadF8qqZNyhRJ9qwgf[] = {
/* columns rows colors chars-per-pixel */
"64 64 215 2 ",
"   c #00BF63",
".  c #00BF62",
"X  c #16C571",
"o  c #9DE6C3",
"O  c #F3FCF8",
"+  c white",
"@  c #02BF64",
"#  c #8AE2B7",
"$  c #89E1B7",
"%  c #01BF64",
"&  c #17C571",
"*  c #D7F5E6",
"=  c #D6F5E6",
"-  c #1EC775",
";  c #DFF7EC",
":  c #1EC675",
">  c #DFF7EB",
",  c #F9F9F9",
"<  c gray90",
"1  c #F4F4F4",
"2  c gray86",
"3  c gray22",
"4  c gray24",
"5  c #909090",
"6  c #EAEAEA",
"7  c #FBFBFB",
"8  c gray59",
"9  c gray5",
"0  c black",
"q  c #4E4E4E",
"w  c gray93",
"e  c gray54",
"r  c #010101",
"t  c #070707",
"y  c #BBBBBB",
"u  c gray76",
"i  c gray4",
"p  c #9D9D9D",
"a  c #C1C1C1",
"s  c gray56",
"d  c gray99",
"f  c gainsboro",
"g  c gray64",
"h  c #9A9A9A",
"j  c gray92",
"k  c #C0C0C0",
"l  c #090909",
"z  c gray37",
"x  c #A2A2A2",
"c  c #5B5B5B",
"v  c gray12",
"b  c #020202",
"n  c #686868",
"m  c #FDFDFD",
"M  c gray1",
"N  c #040404",
"B  c #161616",
"V  c gray50",
"C  c #FEFEFE",
"Z  c #9F9F9F",
"A  c #767676",
"S  c gray73",
"D  c #E2E2E2",
"F  c #E1E1E1",
"G  c #C3C3C3",
"H  c gray33",
"J  c #131313",
"K  c #111111",
"L  c #676767",
"P  c gray61",
"I  c gray83",
"U  c gray6",
"Y  c #060606",
"T  c #202020",
"R  c #0B0B0B",
"E  c gray32",
"W  c #CBCBCB",
"Q  c #F1F1F1",
"!  c #B9B9B9",
"~  c gray28",
"^  c gray7",
"/  c gray3",
"(  c #101010",
")  c #232323",
"_  c gray31",
"`  c #505050",
"'  c #ACACAC",
"]  c gray95",
"[  c #DADADA",
"{  c gray78",
"}  c #D2D2D2",
"|  c gray96",
" . c #CDCDCD",
".. c gray89",
"X. c gray71",
"o. c gray2",
"O. c #A9A9A9",
"+. c #A5A5A5",
"@. c #393939",
"#. c #191919",
"$. c #0C0C0C",
"%. c #4C4C4C",
"&. c #AEAEAE",
"*. c gray16",
"=. c gray21",
"-. c #E6E6E6",
";. c gray98",
":. c #D7D7D7",
">. c gray80",
",. c #6A6A6A",
"<. c #979797",
"1. c gray26",
"2. c gray74",
"3. c #DDDDDD",
"4. c #343434",
"5. c gray38",
"6. c gray82",
"7. c #313131",
"8. c gray10",
"9. c LightGray",
"0. c #777777",
"q. c #606060",
"w. c #444444",
"e. c #535353",
"r. c #151515",
"t. c gray85",
"y. c #F3F3F3",
"u. c #5F5F5F",
"i. c gray23",
"p. c gray70",
"a. c #434343",
"s. c #929292",
"d. c #7B7B7B",
"f. c #3C3C3C",
"g. c gray9",
"h. c #4B4B4B",
"j. c #ECECEC",
"k. c #2C2C2C",
"l. c #A4A4A4",
"z. c #CECECE",
"x. c gray17",
"c. c #494949",
"v. c gray63",
"b. c gray11",
"n. c gray75",
"m. c gray14",
"M. c #D8D8D8",
"N. c #6D6D6D",
"B. c gray39",
"V. c #E7E7E7",
"C. c gray62",
"Z. c #323232",
"A. c #9B9B9B",
"S. c #989898",
"D. c #2A2A2A",
"F. c gray19",
"G. c gray67",
"H. c gray77",
"J. c #626262",
"K. c #464646",
"L. c gray13",
"P. c #2D2D2D",
"I. c #818181",
"U. c #F6F6F6",
"Y. c gray43",
"T. c gray88",
"R. c #585858",
"E. c gray29",
"W. c #7C7C7C",
"Q. c #C8C8C8",
"!. c #3F3F3F",
"~. c gray72",
"^. c gray97",
"/. c #252525",
"(. c gray84",
"). c #5D5D5D",
"_. c gray25",
"`. c gray68",
"'. c gray15",
"]. c #1B1B1B",
"[. c gray69",
"{. c gray46",
"}. c #181818",
"|. c gray51",
" X c gray20",
".X c #DFDFDF",
"XX c #E9E9E9",
"oX c #D0D0D0",
"OX c #B7B7B7",
"+X c #353535",
"@X c #D5D5D5",
"#X c gray60",
"$X c gray18",
"%X c #2F2F2F",
"&X c gray65",
"*X c #3E3E3E",
"=X c #B2B2B2",
"-X c #555555",
";X c gray44",
":X c #484848",
">X c #EFEFEF",
",X c #8D8D8D",
"<X c #898989",
"1X c #8E8E8E",
"2X c #1D1D1D",
"3X c #EEEEEE",
"4X c #CACACA",
"5X c #E4E4E4",
"6X c #F8F8F8",
"7X c gray55",
"8X c #373737",
"9X c #414141",
"0X c #B4B4B4",
"qX c #9CE6C3",
"wX c #16C570",
/* pixels */
"                    . X o O + + + + + + + + + + + + + + + + + + + + + + + + + + + + + + + + + + + + O o X .                     ",
"                    @ # + + + + + + + + + + + + + + + + + + + + + + + + + + + + + + + + + + + + + + + + $ %                     ",
"                  . & * + + + + + + + + + + + + + + + + + + + + + + + + + + + + + + + + + + + + + + + + = X .                   ",
"                  . - ; + + + + + + + + + + + + + + + + + + + + + + + + + + + + + + + + + + + + + + + + ; : .                   ",
"                  . : > + + + + + + + + + + + + + + + + + + + + + + + + + + + + + + + + + + + + + + + + > : .                   ",
"                  . : > + + + + + + + + + + + + + + + + + + + + + + + + + + + + + + + + + + + + + + + + > : .                   ",
"                  . : > + + + + + + + + + + + + + + + + + + + + + + + + + + + + + + + + + + + + + + + + > : .                   ",
"                  . : > + + + + + + + + + + + + + + + + + + + + + + + + + + + + + + + + + + + + + + + + > : .                   ",
"                  . : > + + + + + + + + + + + + + + + + + + + + + + + + + + + + + + + + + + + + + + + + > : .                   ",
"                  . : > + + + + + + + + + + + + + + + + + + + + + + + + + + + + + + + + + + + + + + + + > : .                   ",
"                  . : > + + + + + + + + + + + + + + + + + + + + + + + + + + + + + + + + + + + + + + + + > : .                   ",
"                  . : > + + + + + + + + + + + + + + + , < 1 + + + + + + + + + + + + + + + + + + + + + + > : .                   ",
"                  . : > + + + + + + + + + + + + + + + 2 3 4 5 6 + + + + + + + + + + + + + + + + + + + + > : .                   ",
"                  . : > + + + + + + + + + + + + + + + 7 8 9 0 q w + + + + + + + + + + + + + + + + + + + > : .                   ",
"                  . : > + + + + + + + + + + + + + + + + + e r t y + + + + + + + + + + + + + + + + + + + > : .                   ",
"                  . : > + + + + + + + + + + + + + + + + + u i 0 p + + + + + + + + + + + + + + + + + + + > : .                   ",
"                  . : > + + + + + + + + + + + + + + + + + a i 0 s + d f g h j + + + + + + + + + + + + + > : .                   ",
"                  . : > + + + + + + + + + + + + + + + + + k l 0 z x c v b 0 n 7 + + + + + + + + + + + + > : .                   ",
"                  . : > + + + + + + + + + + + + + + + + m 8 M 0 N 0 0 0 0 B V 7 + + + + + + + + + + + + > : .                   ",
"                  . : > + + + + + + + + C Z A S D F G 5 H J 0 0 0 K 3 L P I 7 + + + + + + + + + + + + + > : .                   ",
"                  . : > + + + + + + + + + Z U Y T T R 0 0 0 0 0 E W Q + + + + + + + + + + + + + + + + + > : .                   ",
"                  . : > + + + + + + + + + C ! ~ ^ / ( ) _ ` b b ' + + + ] [ { } | + + + + + + + + + + + > : .                   ",
"                  . : > + + + + + + + + + + + 1 } a  ...m X.o.N O.F +.n @.#.$.J %. .+ + + + + + + + + + > : .                   ",
"                  . : > + + + + + + + + + + + + + + + + + &.M r *.v 0 0 0 / U M 0 =.-.+ + + + + + + + + > : .                   ",
"                  . : > + + + + + + + + ;.:., + + + + m >.q 0 0 0 J 4 ,.<.k W 1.0 / 2.+ + + + + + + + + > : .                   ",
"                  . : > + + + + + + + + 3.4.a + + 7 G 5.^ 0 0 M ,.6.1 + + + w 7.0 8.:.+ + + + + + + + + > : .                   ",
"                  . : > + + + + + + + + 9.( 0.+ 9.q.K J w.e.b r.t.+ y.t...+ O.Y 0 u.d + + + + + + + + + > : .                   ",
"                  . : > + + + + + + + + 3.#.i.p.@.a.s.9.7 p.M U s d.f.g.4.} h.0 ^ G + + + + + + + + + + > : .                   ",
"                  . : > + + + + + + + + j.k.K l.z.| + + ] L 0 0 b 0 0 0 x.e R 0 ,.d + + + + + + + + + + > : .                   ",
"                  . : > + + + + + + + + , c.0 v.+ + w O.w.N 0 0 0 r b.L n.a.0 m.M.+ + + + + + + + + + + > : .                   ",
"                  . : > + + + + + + + + + N.0 B.V.C.=.r 0 o.0 0 Z.A.f + s b N S.+ + + + + + + + + + + + > : .                   ",
"                  . : > + + + + + + + + + S.0 J D.( F.n +.z 0 N G.m } d.K 0 H 1 + + + + + + + + + + + + > : .                   ",
"                  . : > + + + + + + + + + H.9 0 J.G w + ;._ 0 b c.K.r.0 0 L.6.+ + + + + + + + + + + + + > : .                   ",
"                  . : > + + + + + + + + + 6 P.0 I.+ + U.I.Y 0 0 0 0 0 0 / C.+ + + + + + + + + + + + + + > : .                   ",
"                  . : > + + + + + + + + + + Y.0 D.T.9.R.o.0 0 0 T E.T / W.;.+ + + + + + + + + + + + + + > : .                   ",
"                  . : > + + + + + + + + + + Q.r.r !.T 0 0 o.0 ^ k d 9.~.^.+ + + + + + + + + + + + + + + > : .                   ",
"                  . : > + + + + + + + + + + 7 H 0 0 l 0 t /.0 #.(.+ + + + + + + + + + + + + + + + + + + > : .                   ",
"                  . : > + + + + + + + + + + + n.A p ).0 0 M 0 b _.A.[ d + + + + + + + + + + + + + + + + > : .                   ",
"                  . : > + + + + + + + + + + + + + ! g.0 $.t 0 M i 0 b.).`.6 + + + + + + + + + + + + + + > : .                   ",
"                  . : > + + + + + + + + + + + + W '.0 1.k B.0 ].[.{.}.0 N 7.|.} d + + + + + + + + + + + > : .                   ",
"                  . : > + + + + + + + + + + + 9. X0 _..X+ 5 0 /.XX+ oX,.B 0 0 #.u.OX] + + + + + + + + + > : .                   ",
"                  . : > + + + + + + + + + + oX+X0 Z.@X+ + #X0 *.XX+ + m W J.( 0 0 i 1.A.V.+ + + + + + + > : .                   ",
"                  . : > + + + + + + + + + H.$X0 F. .+ + + C.0 k.j + + + + 7 a H i 0 0 b %Xh y.+ + + + + > : .                   ",
"                  . : > + + + + + + + d &Xv 0 *X} + C.l.+ v.0 $Xw + + + + + + ^.=X1.b 0 0 N -X3.+ + + + > : .                   ",
"                  . : > + + + + + + F ;Xl r z D + , :Xi ' C.0 %Xw + + + + + + + + >X,X#.0 0 0 K.6 + + + > : .                   ",
"                  . : > + + + m t.<XD.0 }.1X| + + + s 0 2Xf.0 F.3X+ + + + + + + + + + G *X0 0 M ! + + + > : .                   ",
"                  . : > + + + 4XL.0 $.R.4X+ + + + + .X'.0 0 0 Z.>X+ + + + + + + + + + + XXI.%X-X5X+ + + > : .                   ",
"                  . : > + + + V.I.I.G 6X+ + + + + + + 7Xr 0 0 8XQ + + + + + + + + + + + + + w U.+ + + + > : .                   ",
"                  . : > + + + + + + + + + + + + + + + j.9X0 0 *X| + + + + + + + + + + + + + + + + + + + > : .                   ",
"                  . : > + + + + + + + + + + + + + + + + k r.0 h.;.+ + + + + + + + + + + + + + + + + + + > : .                   ",
"                  . : > + + + + + + + + + + + + + + + + + 5 / d.+ + + + + + + + + + + + + + + + + + + + > : .                   ",
"                  . : > + + + + + + + + + + + + + + + + + ^.0X6 + + + + + + + + + + + + + + + + + + + + > : .                   ",
"                  . : > + + + + + + + + + + + + + + + + + + + + + + + + + + + + + + + + + + + + + + + + > : .                   ",
"                  . : > + + + + + + + + + + + + + + + + + + + + + + + + + + + + + + + + + + + + + + + + > : .                   ",
"                  . : > + + + + + + + + + + + + + + + + + + + + + + + + + + + + + + + + + + + + + + + + > : .                   ",
"                  . : > + + + + + + + + + + + + + + + + + + + + + + + + + + + + + + + + + + + + + + + + > : .                   ",
"                  . : > + + + + + + + + + + + + + + + + + + + + + + + + + + + + + + + + + + + + + + + + > : .                   ",
"                  . : > + + + + + + + + + + + + + + + + + + + + + + + + + + + + + + + + + + + + + + + + > : .                   ",
"                  . : > + + + + + + + + + + + + + + + + + + + + + + + + + + + + + + + + + + + + + + + + > : .                   ",
"                  . : > + + + + + + + + + + + + + + + + + + + + + + + + + + + + + + + + + + + + + + + + > : .                   ",
"                  . - ; + + + + + + + + + + + + + + + + + + + + + + + + + + + + + + + + + + + + + + + + ; : .                   ",
"                  . & = + + + + + + + + + + + + + + + + + + + + + + + + + + + + + + + + + + + + + + + + = X .                   ",
"                    @ # + + + + + + + + + + + + + + + + + + + + + + + + + + + + + + + + + + + + + + + + $ %                     ",
"                    . X o O + + + + + + + + + + + + + + + + + + + + + + + + + + + + + + + + + + + + O qXwX.                     "
};
