/* XPM */
static char *_40f6918b6e24fbbb66a09638b5be968HMjoPaAYOKNmfKqj[] = {
/* columns rows colors chars-per-pixel */
"64 64 206 2 ",
"   c #00BF63",
".  c #00BF62",
"X  c #1BC673",
"o  c #A5E8C8",
"O  c #F5FCF9",
"+  c white",
"@  c #F9FEFC",
"#  c #BAEED5",
"$  c #2DCA7E",
"%  c #00BE62",
"&  c #04C065",
"*  c #94E4BE",
"=  c #B4ECD1",
"-  c #0EC36C",
";  c #1DC675",
":  c #DEF7EB",
">  c #F2FCF7",
",  c #37CD85",
"<  c #00BE61",
"1  c #25C87A",
"2  c #E6F9F0",
"3  c #F7FDFA",
"4  c #43D08C",
"5  c #F8F8F8",
"6  c #E4E4E4",
"7  c gray96",
"8  c #CACACA",
"9  c gray17",
"0  c gray28",
"q  c #B4B4B4",
"w  c #FDFDFD",
"e  c #F6F6F6",
"r  c gray44",
"t  c black",
"y  c #101010",
"u  c #A7A7A7",
"i  c gray91",
"p  c #2F2F2F",
"a  c gray26",
"s  c #DADADA",
"d  c gray87",
"f  c #FBFBFB",
"g  c gray99",
"h  c gray31",
"j  c #353535",
"k  c #F1F1F1",
"l  c #6A6A6A",
"z  c gray11",
"x  c gray35",
"c  c #C6C6C6",
"v  c gray32",
"b  c #393939",
"n  c #F3F3F3",
"m  c gray40",
"M  c gray13",
"N  c #CECECE",
"B  c gray24",
"V  c #EEEEEE",
"C  c #909090",
"Z  c #F9F9F9",
"A  c #494949",
"S  c gray97",
"D  c gray49",
"F  c #484848",
"G  c gray98",
"H  c #4B4B4B",
"J  c gray45",
"K  c #505050",
"L  c gray43",
"P  c #313131",
"I  c gray36",
"U  c #FEFEFE",
"Y  c #CDCDCD",
"T  c #E7E7E7",
"R  c #282828",
"E  c #6C6C6C",
"W  c #555555",
"Q  c #0E0E0E",
"!  c gray30",
"~  c gray94",
"^  c #F4F4F4",
"/  c gray61",
"(  c #131313",
")  c #717171",
"_  c gray88",
"`  c gray12",
"'  c gray46",
"]  c #9D9D9D",
"[  c #1E1E1E",
"{  c gray2",
"}  c gray47",
"|  c #D7D7D7",
" . c gray9",
".. c #E9E9E9",
"X. c #676767",
"o. c #070707",
"O. c gray1",
"+. c #4C4C4C",
"@. c gray82",
"#. c gray55",
"$. c #010101",
"%. c #818181",
"&. c gray80",
"*. c #979797",
"=. c #9B9B9B",
"-. c #EFEFEF",
";. c gray77",
":. c gray29",
">. c #7B7B7B",
",. c gray8",
"<. c #8D8D8D",
"1. c gray",
"2. c #090909",
"3. c #838383",
"4. c #E2E2E2",
"5. c gray83",
"6. c #ACACAC",
"7. c gray33",
"8. c #6F6F6F",
"9. c #151515",
"0. c #0C0C0C",
"q. c gray90",
"w. c gray65",
"e. c #020202",
"r. c gray6",
"t. c #727272",
"y. c #A4A4A4",
"u. c gray42",
"i. c #040404",
"p. c gray22",
"a. c #AFAFAF",
"s. c gray79",
"d. c gray67",
"f. c #6D6D6D",
"g. c #8E8E8E",
"h. c #252525",
"j. c #DFDFDF",
"k. c gray38",
"l. c gray25",
"z. c #EAEAEA",
"x. c gray73",
"c. c #060606",
"v. c #B9B9B9",
"b. c #A0A0A0",
"n. c #D5D5D5",
"m. c #C1C1C1",
"M. c gray4",
"N. c gray70",
"B. c gray66",
"V. c LightGray",
"C. c gray3",
"Z. c #A5A5A5",
"A. c #D8D8D8",
"S. c #181818",
"D. c gray48",
"F. c #989898",
"G. c #808080",
"H. c gray15",
"J. c #898989",
"K. c #272727",
"L. c gray93",
"P. c #888888",
"I. c gray92",
"U. c #4E4E4E",
"Y. c #E6E6E6",
"T. c #2D2D2D",
"R. c #ECECEC",
"E. c #CBCBCB",
"W. c #C0C0C0",
"Q. c gray10",
"!. c gray53",
"~. c gray39",
"^. c gray51",
"/. c gray69",
"(. c #232323",
"). c #2C2C2C",
"_. c gray62",
"`. c gray95",
"'. c #111111",
"]. c gray58",
"[. c #AEAEAE",
"{. c gray56",
"}. c gray7",
"|. c gray76",
" X c gray64",
".X c gray14",
"XX c #434343",
"oX c #D0D0D0",
"OX c gray19",
"+X c #BCBCBC",
"@X c gray81",
"#X c #AAAAAA",
"$X c gray23",
"%X c gray5",
"&X c #B2B2B2",
"*X c #0B0B0B",
"=X c #777777",
"-X c DimGray",
";X c #A9A9A9",
":X c #797979",
">X c gray86",
",X c #B6B6B6",
"<X c #C5C5C5",
"1X c #38CD85",
"2X c #A4E8C7",
"3X c #2CCA7E",
/* pixels */
"                    . X o O + + + + + + + + + + + + + + + + + + + + + + + + + + + + + + + + + + + @ # $ %                       ",
"                    & * + + + + + + + + + + + + + + + + + + + + + + + + + + + + + + + + + + + + + + + = - .                     ",
"                  . ; : + + + + + + + + + + + + + + + + + + + + + + + + + + + + + + + + + + + + + + + > , <                     ",
"                  % 1 2 + + + + + + + + + + + + + + + + + + + + + + + + + + + + + + + + + + + + + + + 3 4 <                     ",
"                  % 1 2 + + + + + + + + + + + + + + + + + + + + + + + + + + + + + + + + + + + + + + + 3 4 <                     ",
"                  % 1 2 + + + + + + + + + + + + + + + + + + + + + + + + + + + + + + + + + + + + + + + 3 4 <                     ",
"                  % 1 2 + + + + + + + + + + + + + + + + + + + + + + + + + + + + + + + + + + + + + + + 3 4 <                     ",
"                  % 1 2 + + + + + + + + + + + + + + + + + + + + + + + + + + + + + + + + + + + + + + + 3 4 <                     ",
"                  % 1 2 + + + + + + + + + + + + + + + + + + + + + + + + + + + + + + + + + + + + + + + 3 4 <                     ",
"                  % 1 2 + + + + + + + + + + + + + + + + + + + + + + + + + + + + + + + + + + + + + + + 3 4 <                     ",
"                  % 1 2 + + + + + + + + + + + + + + + + + + + + + + + + + + + + + + + + + + + + + + + 3 4 <                     ",
"                  % 1 2 + + + + + + + + + + + + + + + + + + + + + + + + + + + + + + + + + + + + + + + 3 4 <                     ",
"                  % 1 2 + + + + + + + + + + + + + + + + + + + + + + + + + + + + + + + + + + + + + + + 3 4 <                     ",
"                  % 1 2 + + + + + + + + + + + + + + + + + + + + + + + + + + + + + + + + + + + + + + + 3 4 <                     ",
"                  % 1 2 + + + + + + + + + + + + + + + + + + + + + + + + + + + + + + + + + + + + + + + 3 4 <                     ",
"                  % 1 2 + + + + + + + + + + + + + + + + + + + 5 6 7 + + + + + + + + + + + + + + + + + 3 4 <                     ",
"                  % 1 2 + + + + + + + + + + + + + + + + + + + 8 9 0 q w + + + + + + + + + + + + + + + 3 4 <                     ",
"                  % 1 2 + + + + + + + + + + + + + + + + + + + e r t y u + + + + + + + + + + + + + + + 3 4 <                     ",
"                  % 1 2 + + + + + + + + + + + + + + + + + + + + i p t a e + + + + + + + + + + + + + + 3 4 <                     ",
"                  % 1 2 + + + + + + + + + + w s d f + + + + + + g h t j k + + + + + + + + + + + + + + 3 4 <                     ",
"                  % 1 2 + + + + + + + + + + f l z x c + + + + + g v t b n + + + + + + + + + + + + + + 3 4 <                     ",
"                  % 1 2 + + + + + + + + + + + 6 m t M N + + + + f h t B 7 + + + + + + + + + + + + + + 3 4 <                     ",
"                  % 1 2 + + + + + + + + + + + + V j t C + + + + Z A t a S + + + + + + + + + + + + + + 3 4 <                     ",
"                  % 1 2 + + + + + + + + + + + + Z A t D + + + + S a t F Z + + + + + + + + + + + + + + 3 4 <                     ",
"                  % 1 2 + + + + + + + + + + + + G H t J + + + + n b t K f + + + + + + + + + + + + + + 3 4 <                     ",
"                  % 1 2 + + + + + + + + + + + + Z F t L + + + + V P t I U + + + e Y T + + + + + + + + 3 4 <                     ",
"                  % 1 2 + + + + + + + + + + + + S B t L + + + + i R t E + + + Y W Q ! ~ + + + + + + + 3 4 <                     ",
"                  % 1 2 + + + + + + + + + + + ^ / ( t ) + + + + _ ` t ' + Z ] [ t t B V + + + + + + + 3 4 <                     ",
"                  % 1 2 + + + + + + + + + + Y v { t t } + + + + |  .t D ..X.o.t O.+.@.+ + + + + + + + 3 4 <                     ",
"                  % 1 2 + + + + + + + + ~ #.z t t $.t %.+ + + + &.y t A B t t 9 *.k + + + + + + + + + 3 4 <                     ",
"                  % 1 2 + + @.=.-.+ U ;.:.$.t P >.,.t <.+ + + + 1.2.t t t M 3.4.+ + + + + | l 5.+ + + 3 4 <                     ",
"                  % 1 2 + + 6.{ 7.q 8.9.t 0.8.q.| 9.t =.+ + + + w.e.t r.t.s + + + + + + + y.t u.+ + + 3 4 <                     ",
"                  % 1 2 + + V +.t i.t t p.a.f + s.Q e.d.+ + + + f.t e.g.+ + + + + + + + + 6.$.h.4.+ + 3 4 <                     ",
"                  % 1 2 + + + j.k.h.l.*.z.+ + + x.o.c.v.+ T D b.r t 9.n.+ + + + + + + + + m.M.{ N.+ + 3 4 <                     ",
"                  % 1 2 + + + + G T n + + + + + B.$.r.Y V.l.C.Z.} t M 4.+ + + + + + + + + A.S.t D.+ + 3 4 <                     ",
"                  % 1 2 + + + + + + + + + + + + F.t ,.G.H.{ J.U ' t K.i + + + + + + + + + L.P t 0 5 + 3 4 <                     ",
"                  % 1 2 + + + + + + + + + + + + G.t e.$.c.P.f + t.t 9 I.+ + + + + + + + + G U.t K.Y.+ 3 4 <                     ",
"                  % 1 2 + + + + + + + + + + + U x t t C.P.f + + u.t T.R.+ + + + + + + + + + X.t y E.+ 3 4 <                     ",
"                  % 1 2 + + + + + + + + + + + W.Q.t C.!.f + + + ~.t T.R.+ + + + + + + + + + ^.t i./.+ 3 4 <                     ",
"                  % 1 2 + + + + + + + + + + /.(.t 2.J.f + + + + k.t ).I.+ + + + + + + + + + F.t t _.+ 3 4 <                     ",
"                  % 1 2 + + + + + + + + `.!.'.t '.].g + + + + + l t K.i + + + + + + + + + + J.t t *.+ 3 4 <                     ",
"                  % 1 2 + + + + + + + V.v e.t H.[.+ + + + + + + {.t }.c + + + + + + + k |.f.9.t t y.+ 3 4 <                     ",
"                  % 1 2 + + + + + Z  X.Xt t XXoX+ + + + + + + + s H.t OX#.+X@XoX;.#X} $X%Xt t t $X4.+ 3 4 <                     ",
"                  % 1 2 + + + + -.u.2.t 2.r z.+ + + + + + + + + + &X[ t t o.'.'.*Xe.t t t i.R =Xd + + 3 4 <                     ",
"                  % 1 2 + + + + q $.t R y.G + + + + + + + + + + + + E.X.9 }.C.i.{ 0.Q.p.-X;X6 + + + + 3 4 <                     ",
"                  % 1 2 + + + + T ) :X>X+ + + + + + + + + + + + + + + U ..oX1.q ,X<X>Xk + + + + + + + 3 4 <                     ",
"                  % 1 2 + + + + + + + + + + + + + + + + + + + + + + + + + + + + + + + + + + + + + + + 3 4 <                     ",
"                  % 1 2 + + + + + + + + + + + + + + + + + + + + + + + + + + + + + + + + + + + + + + + 3 4 <                     ",
"                  % 1 2 + + + + + + + + + + + + + + + + + + + + + + + + + + + + + + + + + + + + + + + 3 4 <                     ",
"                  % 1 2 + + + + + + + + + + + + + + + + + + + + + + + + + + + + + + + + + + + + + + + 3 4 <                     ",
"                  % 1 2 + + + + + + + + + + + + + + + + + + + + + + + + + + + + + + + + + + + + + + + 3 4 <                     ",
"                  % 1 2 + + + + + + + + + + + + + + + + + + + + + + + + + + + + + + + + + + + + + + + 3 4 <                     ",
"                  % 1 2 + + + + + + + + + + + + + + + + + + + + + + + + + + + + + + + + + + + + + + + 3 4 <                     ",
"                  % 1 2 + + + + + + + + + + + + + + + + + + + + + + + + + + + + + + + + + + + + + + + 3 4 <                     ",
"                  % 1 2 + + + + + + + + + + + + + + + + + + + + + + + + + + + + + + + + + + + + + + + 3 4 <                     ",
"                  % 1 2 + + + + + + + + + + + + + + + + + + + + + + + + + + + + + + + + + + + + + + + 3 4 <                     ",
"                  % 1 2 + + + + + + + + + + + + + + + + + + + + + + + + + + + + + + + + + + + + + + + 3 4 <                     ",
"                  % 1 2 + + + + + + + + + + + + + + + + + + + + + + + + + + + + + + + + + + + + + + + 3 4 <                     ",
"                  % 1 2 + + + + + + + + + + + + + + + + + + + + + + + + + + + + + + + + + + + + + + + 3 4 <                     ",
"                  % 1 2 + + + + + + + + + + + + + + + + + + + + + + + + + + + + + + + + + + + + + + + 3 4 <                     ",
"                  % 1 2 + + + + + + + + + + + + + + + + + + + + + + + + + + + + + + + + + + + + + + + 3 4 <                     ",
"                  . ; : + + + + + + + + + + + + + + + + + + + + + + + + + + + + + + + + + + + + + + + > 1X<                     ",
"                    & * + + + + + + + + + + + + + + + + + + + + + + + + + + + + + + + + + + + + + + + = - .                     ",
"                    . X 2XO + + + + + + + + + + + + + + + + + + + + + + + + + + + + + + + + + + + @ # 3X%                       "
};
