/* XPM */
static char *_747f9468a614e75efec5d3522fd5f0fpmNT2wLXbpjWtt0y[] = {
/* columns rows colors chars-per-pixel */
"64 64 225 2 ",
"   c #00BF63",
".  c #00BF62",
"X  c #16C571",
"o  c #9DE6C3",
"O  c #F3FCF8",
"+  c white",
"@  c #02BF64",
"#  c #8AE2B7",
"$  c #89E1B7",
"%  c #01BF64",
"&  c #17C571",
"*  c #D7F5E6",
"=  c #D6F5E6",
"-  c #1EC775",
";  c #DFF7EC",
":  c #1EC675",
">  c #DFF7EB",
",  c gray94",
"<  c gray92",
"1  c #898989",
"2  c #2A2A2A",
"3  c #777777",
"4  c LightGray",
"5  c #D2D2D2",
"6  c #3F3F3F",
"7  c black",
"8  c #1D1D1D",
"9  c gray61",
"0  c #FDFDFD",
"q  c #EAEAEA",
"w  c #676767",
"e  c #131313",
"r  c gray78",
"t  c gray81",
"y  c #111111",
"u  c #9B9B9B",
"i  c gray69",
"p  c #060606",
"a  c gray1",
"s  c gray68",
"d  c #F9F9F9",
"f  c gainsboro",
"g  c gray83",
"h  c #F8F8F8",
"j  c #FBFBFB",
"k  c gray36",
"l  c gray8",
"z  c gray79",
"x  c gray85",
"c  c #9A9A9A",
"v  c #505050",
"b  c #7B7B7B",
"n  c gray74",
"m  c gray5",
"M  c #3E3E3E",
"N  c #191919",
"B  c #4E4E4E",
"V  c #F6F6F6",
"C  c gray99",
"Z  c #C0C0C0",
"A  c #323232",
"S  c #151515",
"D  c #393939",
"F  c gray38",
"G  c #939393",
"H  c gray88",
"J  c #AEAEAE",
"K  c gray59",
"L  c #DADADA",
"P  c #EEEEEE",
"I  c gray67",
"U  c #5D5D5D",
"Y  c #1E1E1E",
"T  c #5A5A5A",
"R  c gray60",
"E  c gray82",
"W  c gray95",
"Q  c #8D8D8D",
"!  c gray2",
"~  c #2F2F2F",
"^  c gray10",
"/  c #020202",
"(  c #0B0B0B",
")  c gray58",
"_  c #0C0C0C",
"`  c #101010",
"'  c #222222",
"]  c #838383",
"[  c #E7E7E7",
"{  c gray80",
"}  c gray75",
"|  c gray12",
" . c gray37",
".. c gray96",
"X. c #D0D0D0",
"o. c #B6B6B6",
"O. c #A2A2A2",
"+. c #A9A9A9",
"@. c gray22",
"#. c gray98",
"$. c gray29",
"%. c #272727",
"&. c #040404",
"*. c #282828",
"=. c #A4A4A4",
"-. c #535353",
";. c #161616",
":. c gray15",
">. c #C6C6C6",
",. c #DFDFDF",
"<. c #B2B2B2",
"1. c #ECECEC",
"2. c #ACACAC",
"3. c #5B5B5B",
"4. c gray11",
"5. c gray9",
"6. c #8E8E8E",
"7. c gray73",
"8. c #D7D7D7",
"9. c gray89",
"0. c #585858",
"q. c #8B8B8B",
"w. c #B7B7B7",
"e. c gray23",
"r. c #868686",
"t. c gray19",
"y. c #010101",
"u. c gray26",
"i. c #484848",
"p. c #747474",
"a. c gray77",
"s. c gray86",
"d. c #E6E6E6",
"f. c gray50",
"g. c gray63",
"h. c gray84",
"j. c gray90",
"k. c gray93",
"l. c #464646",
"z. c gray43",
"x. c #CECECE",
"c. c #434343",
"v. c gray6",
"b. c #3C3C3C",
"n. c gray21",
"m. c #BCBCBC",
"M. c #B4B4B4",
"N. c #494949",
"B. c gray24",
"V. c #E1E1E1",
"C. c #D5D5D5",
"Z. c gray71",
"A. c gray16",
"S. c #C8C8C8",
"D. c #E2E2E2",
"F. c #555555",
"G. c #0E0E0E",
"H. c #B9B9B9",
"J. c #343434",
"K. c gray13",
"L. c #9F9F9F",
"P. c gray32",
"I. c gray3",
"U. c #2D2D2D",
"Y. c gray31",
"T. c gray30",
"R. c #AFAFAF",
"E. c #4C4C4C",
"W. c gray25",
"Q. c gray97",
"!. c gray72",
"~. c #3A3A3A",
"^. c #F1F1F1",
"/. c #414141",
"(. c gray56",
"). c #909090",
"_. c #090909",
"`. c #606060",
"'. c #CBCBCB",
"]. c #989898",
"[. c #D8D8D8",
"{. c gray66",
"}. c #686868",
"|. c gray20",
" X c #808080",
".X c #959595",
"XX c #444444",
"oX c gray35",
"OX c #6D6D6D",
"+X c #6F6F6F",
"@X c #FEFEFE",
"#X c #E9E9E9",
"$X c #888888",
"%X c gray39",
"&X c #E4E4E4",
"*X c #181818",
"=X c gray27",
"-X c gray55",
";X c gray70",
":X c #818181",
">X c #2C2C2C",
",X c gray54",
"<X c gray49",
"1X c #070707",
"2X c #565656",
"3X c #C5C5C5",
"4X c gray",
"5X c gray28",
"6X c #9D9D9D",
"7X c #C1C1C1",
"8X c gray7",
"9X c #767676",
"0X c gray91",
"qX c gray76",
"wX c #1B1B1B",
"eX c gray64",
"rX c gray18",
"tX c gray4",
"yX c gray87",
"uX c #252525",
"iX c #F4F4F4",
"pX c #DDDDDD",
"aX c #CACACA",
"sX c #9CE6C3",
"dX c #16C570",
/* pixels */
"                    . X o O + + + + + + + + + + + + + + + + + + + + + + + + + + + + + + + + + + + + O o X .                     ",
"                    @ # + + + + + + + + + + + + + + + + + + + + + + + + + + + + + + + + + + + + + + + + $ %                     ",
"                  . & * + + + + + + + + + + + + + + + + + + + + + + + + + + + + + + + + + + + + + + + + = X .                   ",
"                  . - ; + + + + + + + + + + + + + + + + + + + + + + + + + + + + + + + + + + + + + + + + ; : .                   ",
"                  . : > + + + + + + + + + + + + + + + + + + + + + + + + + + + + + + + + + + + + + + + + > : .                   ",
"                  . : > + + + + + + + + + + + + + + + + + + + + + + + + + + + + + + + + + + + + + + + + > : .                   ",
"                  . : > + + + + + + + + + + + + + + + + + + + + + + + + + + + + + + + + + + + + + + + + > : .                   ",
"                  . : > + + + + + + + + + + + + + + + + + + + + + + + + + + + + + + + + + + + + + + + + > : .                   ",
"                  . : > + + + + + + + + + + + + + + + + + + + + + + + + + + + + + + + + + + + + + + + + > : .                   ",
"                  . : > + + + + + + + + + + + + + + + + + + + + + + + + + + + + + + + + + + + + + + + + > : .                   ",
"                  . : > + + + + + + + + + + + + + + + + + + + + + + + + + + + + + + + + + + + + + + + + > : .                   ",
"                  . : > + + + + + + + + + + + + + + + + , < + + + + + + + + + + + + + + + + + + + + + + > : .                   ",
"                  . : > + + + + + + + + + + + + + + + + 1 2 3 4 + + + + + + + + + + + + + + + + + + + + > : .                   ",
"                  . : > + + + + + + + + + + + + + + + + 5 6 7 8 9 0 + + + + + + + + + + + + + + + + + + > : .                   ",
"                  . : > + + + + + + + + + + + + + + + + + q w 7 e r + + + + + + + + + + + + + + + + + + > : .                   ",
"                  . : > + + + + + + + + + + + + + + + + + + t y 7 u + + + + + + + + + + + + + + + + + + > : .                   ",
"                  . : > + + + + + + + + + + + + + + + + + + i p a s + + d f g h + + + + + + + + + + + + > : .                   ",
"                  . : > + + + + + + + + + + + + + + + + + j k 7 l z x c v 8 e b j + + + + + + + + + + + > : .                   ",
"                  . : > + + + + + + + + + + + + + + + + + n y 7 m M N 7 7 7 7 B V + + + + + + + + + + + > : .                   ",
"                  . : > + + + + + + + + + + + + + + + C Z A 7 7 7 7 7 S D F G H + + + + + + + + + + + + > : .                   ",
"                  . : > + + + + + + + + + J K L P L I U e 7 7 7 Y T R E W + + + + + + + + + + + + + + + > : .                   ",
"                  . : > + + + + + + + + + Q ! N ~ ^ / 7 7 7 ( 3 L C + + + + + + + + + + + + + + + + + + > : .                   ",
"                  . : > + + + + + + + + + V ) 2 _ ` ' m 7 a ] 0 + + + + + + + + + + + + + + + + + + + + > : .                   ",
"                  . : > + + + + + + + + + + + [ { E } | 7  ...+ + + + + + d [ X.o.O.+.H + + + + + + + + > : .                   ",
"                  . : > + + + + + + + + + + + + + 0 w 7 @.H + + + #.f i b $.%.y &.7 / *.=.0 + + + + + + > : .                   ",
"                  . : > + + + + + + + + + + + + + =.p | z + C L u -.Y a 7 7 ! ;.:.' ! 7 l >.+ + + + + + > : .                   ",
"                  . : > + + + + + + + + + + + + ,.:.S <.1.2.3.4.7 7 7 5.T 6.7.8.[ 9.0.7 7 q.+ + + + + + > : .                   ",
"                  . : > + + + + + + + + + + + + w.e.6.r.t.y.7 S u.2 7 i...+ + + + + G 7 7 p.+ + + + + + > : .                   ",
"                  . : > + + + + + + a.s.+ + + + d.f.:.7 5.U g.h.j.u.7 t.k.+ + + + + g.y.7 w + + + + + + > : .                   ",
"                  . : > + + + + + h l.z.+ + + x.c.( v.7 q.+ + + q.a 7 ] + + + + + + +./ 7  .+ + + + + + > : .                   ",
"                  . : > + + + + + V b.n.W + m.M -.M.G 7 b + + } ;.7 N.P + + + + + + J a 7 0.0 + + + + + > : .                   ",
"                  . : > + + + + + V B.4.V.+ x C.#.+ Z.y.l.#.H n.7 A.S.9.D.0 + + + + i &.7 F.0 + + + + + > : .                   ",
"                  . : > + + + + + ..M G.t + + + + + H.! Y { 3.7 7 J.l.| K.L.+ + + + i &.7 P.C + + + + + > : .                   ",
"                  . : > + + + + + V 6 p Z + + + + + m.I.&.U.! 7 7 7 7 7 7 Q + + + + i &.7 Y.j + + + + + > : .                   ",
"                  . : > + + + + + V 6 y.<.+ + + + + M.! 7 7 7 7 7 7 ^ T.L...+ + + + R.&.7 E.#.+ + + + + > : .                   ",
"                  . : > + + + + + V W.7 g.+ + + Q.!.l.7 7 7 7 7 ~.c s.Q.^.C.} 4 C + J a 7 N.d + + + + + > : .                   ",
"                  . : > + + + + + V /.7 (.+ + + )._./ N $.Y.a ! J V.L.`.A S _.5.O.+ I a 7 E.#.+ + + + + > : .                   ",
"                  . : > + + + + + Q.u.7 f.+ + + '.].i [.0 >.( y.t.| 7 7 7 7 7 / b + {./ 7 P.C + + + + + > : .                   ",
"                  . : > + + + + + Q.c.7 }.+ + + + + + + 8.k y.7 7 7 G.|. . X.XM.k.+ O.y.7 F.0 + + + + + > : .                   ",
"                  . : > + + + + + Q.XX7 oX0 + + + ^.n OXY 7 7 7 l +Xa.P @X+ + + + + c 7 7 3.@X+ + + + + > : .                   ",
"                  . : > + + + + + h l.7 T.#.+ #XK B._.7 7 y.7 7 $X+ + + + + + + + + (.7 7 %X+ + + + + + > : .                   ",
"                  . : > + + + + + d i.7 M Q.&X6 7 7 *X=X-Xw 7 ! ;X+ + + + + + + + + :X7 7 p.+ + + + + + > : .                   ",
"                  . : > + + + + + #.E.7 >X1.P ,X<X{.8.V + ;X&.1X7.+ + + + + + + + + +X7 7 6.+ + + + + + > : .                   ",
"                  . : > + + + + + 0 2X7 S 4 + + + + + + + H.p _ 3X+ k.L.8.+ + + + @X3.7 7 g.+ + + + + + > : .                   ",
"                  . : > + + + + + + z.7 y.q.+ + + + + + + 4XI.v.{ + 4 S 2 Z + + + h 5X7 1X!.+ + + + + + > : .                   ",
"                  . : > + + + + + + 6X7 7 l Z + + + + + + 7X_.8XE + C 9X7 K.H.+ + 0XA.7 e E + + + + + + > : .                   ",
"                  . : > + + + + + + H 2 7 _ } + + + + + + qX_.*Xx + + k.B 7 wXeXC R._.7 rX< + + + + + + > : .                   ",
"                  . : > + + + + + + + ;XM 6.#.+ + + + + + >.tX8 ,.+ + + yXB.7 ( E.%.7 7 3 + + + + + + + > : .                   ",
"                  . : > + + + + + + + + ..@X+ + + + + + + { m uX[ + + + + 8.b.7 7 7 7 ~ f + + + + + + + > : .                   ",
"                  . : > + + + + + + + + + + + + + + + + + [.e e.iX+ + + + + pXk _ &.M aX+ + + + + + + + > : .                   ",
"                  . : > + + + + + + + + + + + + + + + + + , XXf.+ + + + + + + Q.7X;Xq + + + + + + + + + > : .                   ",
"                  . : > + + + + + + + + + + + + + + + + + + V.P + + + + + + + + + + + + + + + + + + + + > : .                   ",
"                  . : > + + + + + + + + + + + + + + + + + + + + + + + + + + + + + + + + + + + + + + + + > : .                   ",
"                  . : > + + + + + + + + + + + + + + + + + + + + + + + + + + + + + + + + + + + + + + + + > : .                   ",
"                  . : > + + + + + + + + + + + + + + + + + + + + + + + + + + + + + + + + + + + + + + + + > : .                   ",
"                  . : > + + + + + + + + + + + + + + + + + + + + + + + + + + + + + + + + + + + + + + + + > : .                   ",
"                  . : > + + + + + + + + + + + + + + + + + + + + + + + + + + + + + + + + + + + + + + + + > : .                   ",
"                  . : > + + + + + + + + + + + + + + + + + + + + + + + + + + + + + + + + + + + + + + + + > : .                   ",
"                  . : > + + + + + + + + + + + + + + + + + + + + + + + + + + + + + + + + + + + + + + + + > : .                   ",
"                  . : > + + + + + + + + + + + + + + + + + + + + + + + + + + + + + + + + + + + + + + + + > : .                   ",
"                  . - ; + + + + + + + + + + + + + + + + + + + + + + + + + + + + + + + + + + + + + + + + ; : .                   ",
"                  . & = + + + + + + + + + + + + + + + + + + + + + + + + + + + + + + + + + + + + + + + + = X .                   ",
"                    @ # + + + + + + + + + + + + + + + + + + + + + + + + + + + + + + + + + + + + + + + + $ %                     ",
"                    . X o O + + + + + + + + + + + + + + + + + + + + + + + + + + + + + + + + + + + + O sXdX.                     "
};
